<svg xmlns:xlink="http://www.w3.org/1999/xlink" xmlns="http://www.w3.org/2000/svg" width="32" height="32" viewBox="0 0 32 32" fill="none">
<path fill-rule="evenodd" clip-rule="evenodd" d="M20.1435 4.35254C21.7983 3.68169 23.5797 4.98984 23.4349 6.76964L23.2226 9.37991H25.5876C26.9992 9.37991 28.1435 10.5243 28.1435 11.9359C28.1435 13.3475 26.9992 14.4918 25.5876 14.4918H23.113L22.7946 17.3168H24.8771C26.3129 17.3168 27.4769 18.4807 27.4769 19.9165C27.4769 21.3523 26.3129 22.5162 24.8771 22.5162L22.4513 22.5163L22.164 25.105C21.9915 26.6585 20.6757 27.8321 19.1127 27.8264C17.5316 27.8207 16.2953 26.461 16.4396 24.8865L16.6391 22.7087H13.9563L13.7201 25.116C13.611 26.2284 12.8956 27.1892 11.8612 27.6127L11.577 26.9187L11.858 27.614C10.2147 28.2781 8.44577 26.9843 8.58078 25.217L8.78212 22.5815H6.41337C5.00176 22.5815 3.85742 21.4372 3.85742 20.0256C3.85742 18.614 5.00176 17.4696 6.41337 17.4696H8.88793L9.20632 14.6447H7.12382C5.68803 14.6447 4.52409 13.4807 4.52409 12.045C4.52409 10.6092 5.68802 9.44522 7.12381 9.44521L9.80118 9.44519L10.0855 6.88402C10.2438 5.4575 11.4521 4.37982 12.8874 4.38502C14.3218 4.39022 15.4433 5.62375 15.3124 7.05217L15.1041 9.32623L18.0374 9.32623L18.2809 6.84473C18.3901 5.73235 19.1074 4.77241 20.1433 4.3526L20.1435 4.35254ZM22.4165 12.994V12.9918H25.5876C26.1708 12.9918 26.6435 12.519 26.6435 11.9359C26.6435 11.3527 26.1708 10.8799 25.5876 10.8799H23.1098H22.4165C22.0082 10.8799 21.6761 10.5536 21.6667 10.1476C21.6626 10.1044 21.6623 10.0602 21.6659 10.0154L21.9399 6.64802C21.9941 5.98135 21.3268 5.49136 20.7069 5.74268L20.4251 5.04764L20.7068 5.74274C20.1878 5.95303 19.8284 6.43394 19.7737 6.99121L19.4638 10.1495C19.4519 10.2708 19.4116 10.383 19.3497 10.4797C19.2536 10.783 18.9698 11.0028 18.6347 11.0028H14.266C14.0552 11.0028 13.8541 10.9141 13.712 10.7583C13.5699 10.6026 13.4999 10.3943 13.5191 10.1843L13.8187 6.91529C13.8693 6.36352 13.436 5.88702 12.8819 5.88501C12.2131 5.88259 11.6501 6.38476 11.5763 7.04949L11.2276 10.1911C11.2227 10.2351 11.2141 10.2777 11.2022 10.3187C11.1433 10.6741 10.8345 10.9452 10.4623 10.9452L7.12382 10.9452C6.51645 10.9452 6.02409 11.4376 6.02409 12.045C6.02409 12.6523 6.51645 13.1447 7.12382 13.1447H10.0456C10.2591 13.1447 10.4625 13.2357 10.6048 13.3949C10.7471 13.5542 10.8148 13.7665 10.7909 13.9787L10.3036 18.3018C10.2614 18.6764 9.95023 18.9552 9.58443 18.9675V18.9696H6.41337C5.83019 18.9696 5.35742 19.4424 5.35742 20.0256C5.35742 20.6088 5.83019 21.0815 6.41337 21.0815H8.89117H9.58443C9.99275 21.0815 10.3249 21.4078 10.3342 21.8139C10.3382 21.8559 10.3386 21.8988 10.3353 21.9424L10.0764 25.3313C10.0262 25.9884 10.6834 26.4697 11.2945 26.2239C11.8136 26.0107 12.1725 25.5281 12.2273 24.9695L12.4984 22.2059C12.4143 22.0595 12.3663 21.8897 12.3663 21.7087C12.3663 21.1564 12.814 20.7087 13.3663 20.7087H17.7349C18.016 20.7087 18.2841 20.827 18.4736 21.0346C18.6631 21.2422 18.7564 21.52 18.7308 21.7999L18.4312 25.069C18.394 25.4746 18.7126 25.825 19.1199 25.8264C19.661 25.8284 20.1165 25.4221 20.1762 24.8844L20.5249 21.7427C20.5858 21.1938 21.0802 20.7982 21.6291 20.8592C21.7909 20.8771 21.9393 20.9327 22.0667 21.0163L24.8771 21.0162C25.4845 21.0162 25.9769 20.5239 25.9769 19.9165C25.9769 19.3091 25.4845 18.8168 24.8771 18.8168H21.9553C21.7418 18.8168 21.5384 18.7258 21.3961 18.5665C21.2538 18.4073 21.1862 18.195 21.2101 17.9828L21.6973 13.6596C21.7395 13.2851 22.0507 13.0062 22.4165 12.994ZM13.922 13.0908C13.5318 13.0908 13.2067 13.39 13.1745 13.7789L12.8078 18.2122C12.7905 18.4211 12.8614 18.6277 13.0035 18.782C13.1455 18.9362 13.3455 19.024 13.5552 19.024H17.9461C18.3357 19.024 18.6605 18.7256 18.6934 18.3374L19.0695 13.9042C19.0873 13.695 19.0165 13.4879 18.8745 13.3334C18.7324 13.1788 18.5321 13.0908 18.3222 13.0908H13.922ZM14.3698 17.524L14.6125 14.5908H17.5059L17.257 17.524H14.3698Z" fill="#888888"/>
</svg>