<svg xmlns:xlink="http://www.w3.org/1999/xlink" xmlns="http://www.w3.org/2000/svg" width="32" height="32" viewBox="0 0 32 32" fill="none">
<path d="M4.75488 23.5513V16.9972C4.75488 13.9793 6.26703 11.1608 8.75972 9.45958C10.5462 8.24032 11.93 7.29902 13.0846 6.63554C16.9886 4.39209 18.2721 5.32481 23.6426 9.42722C25.9117 11.1605 27.2681 13.8492 27.2681 16.7045L27.2681 23.5513C27.2681 25.2091 25.9241 26.5531 24.2663 26.5531H23.6153C21.9575 26.5531 20.6136 25.2091 20.6136 23.5513V19.3878C20.6136 16.7888 18.5067 14.6819 15.9077 14.6819C13.4241 14.6819 11.4108 16.6953 11.4108 19.1789V23.5513C11.4108 25.2091 10.0669 26.5531 8.40904 26.5531H7.75664C6.09882 26.5531 4.75488 25.2091 4.75488 23.5513Z" stroke="#5D7681" stroke-width="2" stroke-linecap="round" stroke-linejoin="round"/>
<path d="M3.08105 14.1621L8.2017 9.8667" stroke="#5D7681" stroke-width="2" stroke-linecap="round" stroke-linejoin="round"/>
<path d="M28.9854 14.1528L23.9865 9.70752" stroke="#5D7681" stroke-width="2" stroke-linecap="round" stroke-linejoin="round"/>
</svg>