<svg xmlns:xlink="http://www.w3.org/1999/xlink" xmlns="http://www.w3.org/2000/svg" width="32" height="32" viewBox="0 0 32 32" fill="none">
<path fill-rule="evenodd" clip-rule="evenodd" d="M13.4586 26.3605C12.4619 25.4559 11.5702 24.0437 10.9309 22.2537C10.0191 22.7107 9.23527 23.2225 8.62558 23.7052C9.95471 24.9775 11.6124 25.9093 13.4586 26.3605ZM13.1458 23.5278C12.8359 22.9789 12.5524 22.3499 12.3085 21.6497C13.1749 21.3225 14.1174 21.0629 15.1082 20.9219C15.1554 20.9152 15.2027 20.9087 15.2501 20.9025V25.7945C14.6256 25.4915 13.8677 24.8064 13.1458 23.5278ZM14.8969 19.4369C15.014 19.4202 15.1317 19.405 15.2501 19.3913V16.7514H11.4319C11.4788 18.0031 11.6415 19.1614 11.889 20.2052C12.8219 19.8607 13.833 19.5883 14.8969 19.4369ZM11.4319 15.2514C11.4863 13.7955 11.6974 12.4661 12.0163 11.296C12.7179 11.5121 13.4562 11.6838 14.222 11.7928C14.5598 11.8409 14.9028 11.8767 15.2501 11.8987V15.2514H11.4319ZM16.7501 16.7514V19.3052C17.873 19.3068 19.0327 19.4594 20.2011 19.8114C20.3991 18.8726 20.529 17.8479 20.5701 16.7514H16.7501ZM20.5701 15.2514H16.7501V11.9051C17.807 11.8459 18.8908 11.6479 19.979 11.2718C20.3017 12.4477 20.5154 13.7854 20.5701 15.2514ZM22.071 16.7514C22.0264 18.0327 21.8685 19.2358 21.6212 20.3398C22.641 20.7939 23.6587 21.4143 24.6558 22.2331C25.7834 20.6702 26.4981 18.7897 26.6401 16.7514H22.071ZM26.6404 15.2514H22.0711C22.0131 13.5829 21.7631 12.0469 21.3736 10.6897C22.2628 10.2522 23.1486 9.68466 24.0184 8.96567C25.513 10.668 26.474 12.8503 26.6404 15.2514ZM9.93089 15.2514H5.3598C5.51738 12.9767 6.38826 10.8983 7.75033 9.2383C8.54687 9.78488 9.51246 10.3293 10.6017 10.7837C10.2275 12.1177 9.98754 13.6213 9.93089 15.2514ZM5.36009 16.7514H9.93095C9.98183 18.2126 10.18 19.5722 10.4902 20.799C9.34107 21.3523 8.36147 21.9914 7.6153 22.5924C6.33159 20.9622 5.51313 18.9485 5.36009 16.7514ZM16.7501 25.7954V20.8049C17.7484 20.8064 18.7798 20.9436 19.8215 21.2639C19.5511 22.1203 19.2219 22.8799 18.8561 23.5278C18.1336 24.8077 17.3749 25.4929 16.7501 25.7954ZM18.5441 26.3599C19.6219 25.3814 20.577 23.8091 21.2226 21.8073C22.0505 22.1977 22.8785 22.7158 23.6951 23.3851C22.3169 24.8207 20.5408 25.8714 18.5441 26.3599ZM8.79582 8.13406C9.44804 8.56445 10.2187 8.99048 11.077 9.35624C11.7037 7.74899 12.538 6.4748 13.4624 5.63721C11.6927 6.06909 10.0961 6.94249 8.79582 8.13406ZM15.2501 10.3954C14.9745 10.3756 14.7021 10.346 14.4333 10.3077C13.759 10.2118 13.1071 10.0609 12.4863 9.87116C12.6867 9.36097 12.9086 8.89371 13.1458 8.47341C13.8677 7.1948 14.6256 6.5097 15.2501 6.20675V10.3954ZM19.5065 9.8479C18.5762 10.1714 17.6521 10.3452 16.7501 10.4028V6.20587C17.3749 6.50837 18.1336 7.19356 18.8561 8.47341C19.0898 8.88731 19.3085 9.34676 19.5065 9.8479ZM22.946 7.90487C22.2646 8.45532 21.5755 8.90116 20.8854 9.25595C20.2636 7.69633 19.4451 6.45792 18.5402 5.63782C20.1935 6.0417 21.6956 6.83091 22.946 7.90487ZM28.1662 15.9993C28.1662 22.4665 23.1199 27.7551 16.7501 28.1425V28.1668H15.2501V28.1425C8.88024 27.7551 3.83398 22.4665 3.83398 15.9993C3.83398 9.28033 9.28093 3.8335 16.0001 3.8335C22.7192 3.8335 28.1662 9.28033 28.1662 15.9993Z" fill="#888888"/>
</svg>