<svg xmlns:xlink="http://www.w3.org/1999/xlink" xmlns="http://www.w3.org/2000/svg" width="36" height="36" viewBox="0 0 36 36" fill="none">
<path d="M10.4559 31.5V16.8996V31.5ZM10.4559 16.8996C9.73212 17.1489 9.13602 17.1134 8.69298 17.1134H6.14262C4.32906 17.1134 3.78141 17.9417 3.7814 18.6851L3.75 28.9404C3.75 30.7059 4.58823 31.5 5.56852 31.4834L24.6461 31.5C30.1424 31.5 32.25 26.3292 32.25 23.6531V18.1617C32.25 14.4381 28.812 13.5505 27.0931 13.4383H23.1449C22.2596 13.4383 22.0422 12.8381 22.0442 12.5381C22.0442 6.83361 20.2141 4.40963 17.6995 4.50257C15.7027 4.57637 15.1649 6.27987 15.1467 7.13532V11.4946C15.1467 14.2826 12.5173 16.1898 10.4559 16.8996Z" stroke="#666666" stroke-width="2.25"/>
</svg>