<svg xmlns:xlink="http://www.w3.org/1999/xlink" xmlns="http://www.w3.org/2000/svg" width="32" height="32" viewBox="0 0 32 32" fill="none">
<path fill-rule="evenodd" clip-rule="evenodd" d="M18.9836 6.5301C19.0396 6.29902 19.0694 6.05742 19.0694 5.80877C19.0694 4.14885 17.7433 2.80322 16.1075 2.80322C14.4717 2.80322 13.1456 4.14885 13.1456 5.80877C13.1456 6.02901 13.1689 6.24372 13.2132 6.45048C12.7751 6.60541 12.3292 6.79975 11.8914 7.04008C10.362 7.87965 8.91239 9.29392 8.27593 11.5453C8.13114 12.0575 8.1097 12.6252 8.10752 13.1468C8.10679 13.3211 8.10815 13.4903 8.10949 13.6571C8.11244 14.0232 8.1153 14.378 8.09573 14.7499C8.08083 15.0331 8.0751 15.3549 8.06925 15.6835C8.06748 15.7828 8.0657 15.8828 8.06365 15.9825C8.05462 16.4223 8.04026 16.8783 8.00144 17.3334C7.92249 18.259 7.7474 19.1007 7.37698 19.73C7.04848 20.288 6.79437 20.6944 6.61636 20.9735C6.55275 21.0732 6.49967 21.1554 6.45478 21.225L6.45447 21.2254L6.40287 21.3054L6.39639 21.3155L6.39637 21.3155C6.35573 21.3787 6.29947 21.466 6.26601 21.5322C5.96569 22.126 5.68262 22.9897 6.21792 23.8221C6.69954 24.571 7.71125 25.0534 9.20117 25.3933C10.0862 25.5951 11.1477 25.7568 12.292 25.8745C12.2912 25.9003 12.2908 25.9262 12.2908 25.9522C12.2908 27.6121 13.9513 28.9577 15.9997 28.9577C18.0481 28.9577 19.7087 27.6121 19.7087 25.9522C19.7087 25.9263 19.7083 25.9005 19.7075 25.8748C20.852 25.7571 21.9138 25.5954 22.799 25.3935C24.2889 25.0537 25.3006 24.5712 25.7822 23.8223C26.3175 22.9899 26.0345 22.1263 25.7341 21.5324C25.7007 21.4663 25.6444 21.3789 25.6038 21.3157L25.5973 21.3057L25.5458 21.2259L25.5456 21.2256C25.5007 21.156 25.4475 21.0737 25.3838 20.9738C25.2058 20.6947 24.9517 20.2883 24.6232 19.7302C24.253 19.1013 24.0739 18.243 23.991 17.2978C23.9381 16.6952 23.9277 16.1517 23.9179 15.6359V15.6358L23.9179 15.6356V15.6356V15.6355C23.9117 15.3093 23.9057 14.9941 23.8892 14.682C23.8732 14.3765 23.8666 14.0785 23.8601 13.7811L23.8601 13.7808C23.8447 13.0779 23.8294 12.3784 23.6884 11.5903L23.6819 11.554L23.6718 11.5184C23.0353 9.26687 21.5889 7.85878 20.0616 7.02565C19.7047 6.83097 19.3425 6.66701 18.9836 6.5301ZM17.0486 6.01983C17.0622 5.95234 17.0694 5.88182 17.0694 5.80877C17.0694 5.22574 16.6113 4.80322 16.1075 4.80322C15.6037 4.80322 15.1456 5.22574 15.1456 5.80877C15.1456 5.86999 15.1506 5.92943 15.1603 5.98681C15.4227 5.95375 15.6693 5.93494 15.8946 5.92814L15.8947 5.92522C15.9232 5.92531 15.952 5.9256 15.9813 5.92609C16.0103 5.9256 16.0389 5.92531 16.0672 5.92522L16.0672 5.92808C16.3619 5.9368 16.6931 5.96564 17.0486 6.01983ZM15.9522 7.42708C15.1084 7.45039 13.8194 7.69287 12.6132 8.35498C11.366 9.03968 10.2265 10.1595 9.71936 11.9534C9.63498 12.2519 9.60965 12.6396 9.6075 13.1531C9.60693 13.2902 9.60809 13.438 9.6093 13.5931L9.6093 13.5933L9.60931 13.5936L9.60931 13.5936C9.61233 13.9794 9.61571 14.4097 9.59366 14.8287C9.58026 15.0834 9.57517 15.3682 9.56941 15.69V15.69L9.56941 15.69C9.56755 15.7939 9.56563 15.9015 9.56333 16.0133C9.55413 16.461 9.53907 16.9561 9.49602 17.4609C9.43712 18.1514 9.32337 18.8994 9.07739 19.601L7.60457 22.2091L7.60226 22.2137L9.07699 19.6022C8.9689 19.9103 8.83531 20.2094 8.66965 20.4909C8.33065 21.0668 8.06699 21.4886 7.88099 21.7802C7.81508 21.8835 7.75806 21.9718 7.7126 22.0422L7.71252 22.0423L7.71229 22.0427L7.71208 22.043L7.66427 22.1171C7.63571 22.1615 7.61894 22.1882 7.60994 22.2025L7.60993 22.2025C7.60378 22.2123 7.60127 22.2163 7.60112 22.2162L7.60207 22.2141C7.36441 22.6858 7.39704 22.8824 7.47955 23.0107C7.61602 23.2229 8.09099 23.6015 9.53471 23.9308C11.1934 24.3091 13.6016 24.5479 16.0067 24.5941C18.4074 24.5473 20.8098 24.3087 22.4654 23.9311C23.9092 23.6018 24.3841 23.2232 24.5206 23.011C24.6034 22.8822 24.636 22.6847 24.3956 22.2094C24.3978 22.2137 24.3992 22.2164 24.399 22.2165C24.3989 22.2166 24.3964 22.2126 24.3903 22.2029L24.3902 22.2028C24.3812 22.1885 24.3645 22.1618 24.3359 22.1174L24.2881 22.0433C24.2426 21.9728 24.1853 21.8842 24.1192 21.7804C23.9332 21.4888 23.6695 21.067 23.3305 20.4911C22.7872 19.5682 22.5851 18.4374 22.4967 17.4288C22.4415 16.7999 22.427 16.1196 22.4149 15.5538V15.5537C22.4083 15.2469 22.4025 14.9738 22.3913 14.7608C22.3698 14.3526 22.3626 14.0058 22.356 13.688V13.688C22.343 13.0598 22.3323 12.5446 22.2183 11.8911C21.7063 10.1181 20.5774 9.01569 19.3433 8.34247C18.2016 7.71966 16.9839 7.47458 16.1398 7.43209L15.9522 7.42708ZM15.9522 7.42708L9.07699 19.6022L9.07739 19.601L15.9522 7.42708ZM16.0069 26.0943L16.0953 26.0959L16.0954 26.0926C16.793 26.0781 17.4943 26.0479 18.1818 26.0026C18.142 26.5433 17.4743 27.4327 15.9997 27.4327C14.5249 27.4327 13.8572 26.543 13.8177 26.0023C14.5054 26.0476 15.207 26.0778 15.9048 26.0923L15.9048 26.0961L16.0069 26.0943Z" fill="#888888"/>
</svg>