<svg xmlns:xlink="http://www.w3.org/1999/xlink" xmlns="http://www.w3.org/2000/svg" width="36" height="36" viewBox="0 0 36 36" fill="none">
<path fill-rule="evenodd" clip-rule="evenodd" d="M29.5672 3.66045C30.0165 3.24439 30.7181 3.27138 31.1341 3.72071L34.7327 7.6072C35.1762 8.0863 35.1831 8.82413 34.7481 9.31118L31.1476 13.3438C30.7397 13.8006 30.0388 13.8402 29.5821 13.4324C29.1253 13.0245 29.0855 12.3236 29.4934 11.8668L32.5179 8.47931L29.5068 5.22737C29.0908 4.77804 29.1179 4.0765 29.5672 3.66045ZM5.93193 3.66353C5.4826 3.24747 4.78105 3.27445 4.36499 3.72379L0.766392 7.61029C0.322781 8.08938 0.316102 8.82721 0.750971 9.31427L4.35149 13.3469C4.75934 13.8037 5.46029 13.8433 5.91709 13.4355C6.37387 13.0276 6.41355 12.3267 6.0057 11.8699L2.98114 8.48239L5.99219 5.23045C6.40824 4.78112 6.38126 4.07958 5.93193 3.66353ZM25.8853 22.2549C25.8853 26.7457 22.2447 30.3862 17.7541 30.3862C13.2633 30.3862 9.62277 26.7457 9.62277 22.2549C9.62277 17.7642 13.2633 14.1237 17.7541 14.1237C22.2447 14.1237 25.8853 17.7642 25.8853 22.2549ZM28.1029 22.2549C28.1029 27.9704 23.4696 32.6038 17.7541 32.6038C12.0385 32.6038 7.40515 27.9704 7.40515 22.2549C7.40515 17.5129 10.5946 13.5158 14.9452 12.2918L14.9195 12.2372C14.937 12.2289 14.9546 12.2207 14.972 12.2124C13.7683 11.7412 12.6116 11.3232 11.5284 10.9674C8.839 10.0842 6.7112 9.62224 5.45018 9.62224C4.83781 9.62224 4.34137 9.1258 4.34137 8.51343C4.34137 7.90106 4.83781 7.40462 5.45018 7.40462C7.08821 7.40462 9.50214 7.96788 12.2203 8.86053C13.9327 9.42287 15.8095 10.1309 17.7572 10.9507C19.8995 10.0208 21.9078 9.24688 23.7098 8.65684C26.2617 7.82125 28.489 7.32417 30.1195 7.32417C30.7319 7.32417 31.2283 7.8206 31.2283 8.43298C31.2283 9.04536 30.7319 9.54178 30.1195 9.54178C28.8509 9.54178 26.896 9.94703 24.3998 10.7644C23.2122 11.1532 21.9222 11.6286 20.5523 12.1827C20.7971 12.2954 21.0422 12.4095 21.2876 12.5251C25.2632 13.9692 28.1029 17.7805 28.1029 22.2549Z" fill="#666666"/>
</svg>