<svg xmlns:xlink="http://www.w3.org/1999/xlink" xmlns="http://www.w3.org/2000/svg" width="36" height="36" viewBox="0 0 36 36" fill="none">
<path d="M6.35237 25.1831L7.33313 25.4629C7.41238 25.1853 7.37024 24.8871 7.21717 24.6423L6.35237 25.1831ZM4.83449 30.6619L3.85272 30.3854L3.85048 30.3935L4.83449 30.6619ZM5.49301 31.2989L5.79177 32.2741L5.79285 32.2738L5.49301 31.2989ZM10.8835 29.6409L11.4098 28.7674C11.1614 28.6176 10.8609 28.5808 10.5837 28.6661L10.8835 29.6409ZM25.2475 20.813L24.7524 21.7047L24.7533 21.7052L25.2475 20.813ZM23.2217 19.5692L23.7799 18.7154L23.7793 18.7151L23.2217 19.5692ZM22.3449 19.0278L22.8026 18.1163L22.8001 18.1151L22.3449 19.0278ZM21.1666 19.1113L21.8878 19.8325L21.8916 19.8286L21.1666 19.1113ZM21.1111 19.1787L20.2624 18.613V18.6131L21.1111 19.1787ZM19.5034 20.9803L19.3459 21.988L19.5264 22.0163L19.7054 21.9802L19.5034 20.9803ZM16.7739 19.2129L16.121 19.9965L16.1213 19.9966L16.7739 19.2129ZM14.6567 16.6606L15.6312 16.3598L14.6567 16.6606ZM14.74 16.3527L13.9975 15.6535L14.74 16.3527ZM14.0249 11.1198L14.7461 10.3986L14.7455 10.398L14.0249 11.1198ZM12.2921 10.9986L12.0927 9.99836L12.0901 9.99888L12.2921 10.9986ZM12.0652 11.1198L11.3466 10.396L11.344 10.3986L12.0652 11.1198ZM10.6325 16.9207L9.68055 17.2868L9.68056 17.2869L10.6325 16.9207ZM19.6385 24.9699L19.4871 25.9785L19.4875 25.9786L19.6385 24.9699ZM25.4695 21.2739L24.4641 21.1027L24.4635 21.1063L25.4695 21.2739ZM17.8923 3.36572C9.83012 3.36572 3.27319 9.92265 3.27319 17.9849H5.31307C5.31307 11.0492 10.9567 5.4056 17.8923 5.4056V3.36572ZM3.27319 17.9849C3.27319 20.7333 4.03723 23.4043 5.48757 25.7237L7.21717 24.6423C5.97069 22.6488 5.31307 20.3529 5.31307 17.9849H3.27319ZM5.3716 24.9031C5.10156 25.8491 4.72356 27.2137 4.41255 28.3435C4.25687 28.9091 4.11769 29.417 4.01677 29.7855C3.96631 29.97 3.92543 30.1194 3.89682 30.2241C3.86692 30.3335 3.85263 30.3858 3.85276 30.3854L5.81621 30.9386C5.83551 30.87 6.79277 27.3561 7.33313 25.4629L5.3716 24.9031ZM3.85048 30.3935C3.70254 30.9361 3.86103 31.518 4.26861 31.9101L5.68281 30.4401C5.81528 30.5675 5.86602 30.756 5.81848 30.9302L3.85048 30.3935ZM4.26861 31.9101C4.6729 32.2991 5.25662 32.4381 5.79177 32.2741L5.19425 30.3239C5.36743 30.2707 5.55364 30.3157 5.68281 30.4401L4.26861 31.9101ZM5.79285 32.2738L11.1834 30.6158L10.5837 28.6661L5.19314 30.3242L5.79285 32.2738ZM10.3572 30.5146C12.6283 31.8828 15.2284 32.604 17.8923 32.604V30.5641C15.5977 30.5641 13.3618 29.9432 11.4098 28.7674L10.3572 30.5146ZM17.8923 32.604C25.9545 32.604 32.5115 26.0471 32.5115 17.9849H30.4716C30.4716 24.9205 24.8279 30.5641 17.8923 30.5641V32.604ZM32.5115 17.9849C32.5115 9.92265 25.9545 3.36572 17.8923 3.36572V5.4056C24.8279 5.4056 30.4716 11.0492 30.4716 17.9849H32.5115ZM25.7427 19.9212C24.9592 19.4862 24.2891 19.0485 23.7799 18.7154L22.6635 20.4227C23.1725 20.7556 23.8976 21.2301 24.7524 21.7047L25.7427 19.9212ZM23.7793 18.7151C23.4148 18.4772 23.0733 18.2523 22.8026 18.1163L21.8872 19.9392C22.0283 20.0102 22.2507 20.1532 22.664 20.4231L23.7793 18.7151ZM22.8001 18.1151C21.8128 17.6227 20.9038 17.9267 20.4416 18.3939L21.8916 19.8286C21.8707 19.8498 21.8532 19.8638 21.8411 19.8727C21.8285 19.8818 21.8183 19.8878 21.8107 19.8918C21.7955 19.8996 21.7852 19.9022 21.7802 19.9031C21.7739 19.9043 21.7761 19.9027 21.7893 19.9046C21.8024 19.9066 21.8357 19.9135 21.8896 19.9404L22.8001 18.1151ZM20.4454 18.3901C20.3786 18.4568 20.3169 18.5313 20.2624 18.613L21.9597 19.7445C21.9372 19.7783 21.9127 19.8075 21.8878 19.8325L20.4454 18.3901ZM20.2624 18.6131C19.9905 19.021 19.6758 19.4211 19.4099 19.7173C19.2758 19.8665 19.1673 19.9746 19.0931 20.04C19.0552 20.0734 19.0409 20.0826 19.0474 20.0782C19.0513 20.0757 19.0706 20.0628 19.1033 20.0468C19.1318 20.0328 19.2013 20.0009 19.3015 19.9806L19.7054 21.9802C19.9352 21.9338 20.1081 21.8227 20.1799 21.7748C20.2752 21.7112 20.3641 21.6388 20.4408 21.5711C20.5962 21.4345 20.7631 21.2633 20.9277 21.0802C21.2587 20.7114 21.6336 20.2339 21.9597 19.7445L20.2624 18.6131ZM19.661 19.9726C19.7504 19.9867 19.7926 20.0093 19.7471 19.9906C19.7196 19.9794 19.6714 19.9575 19.601 19.9217C19.4614 19.8507 19.2698 19.7425 19.0397 19.5992C18.5805 19.3132 18.0025 18.9087 17.4266 18.4291L16.1213 19.9966C16.7743 20.5405 17.4289 20.9992 17.9612 21.3307C18.227 21.4962 18.4708 21.6353 18.6757 21.7396C18.7775 21.7916 18.8789 21.8395 18.9744 21.8785C19.0517 21.9102 19.1905 21.9638 19.3459 21.988L19.661 19.9726ZM17.4269 18.4294C16.8874 17.9799 16.4576 17.5536 16.1473 17.1789C15.8256 16.7904 15.6784 16.5122 15.6312 16.3598L13.6822 16.9616C13.8426 17.4812 14.1787 18 14.5762 18.4799C14.9848 18.9734 15.5101 19.4873 16.121 19.9965L17.4269 18.4294ZM15.4826 17.052C16.2429 16.2443 16.7288 15.5023 16.7288 14.5415H14.6889C14.6889 14.7029 14.6559 14.9543 13.9975 15.6535L15.4826 17.052ZM16.7288 14.5415C16.7288 14.3071 16.6683 14.0807 16.6222 13.9305C16.5693 13.7581 16.499 13.5736 16.423 13.3917C16.2703 13.0264 16.0699 12.6144 15.8683 12.2272C15.6657 11.838 15.4537 11.4584 15.273 11.1551C15.1828 11.0039 15.0966 10.8652 15.0203 10.7507C14.9619 10.6628 14.86 10.5125 14.7461 10.3986L13.3037 11.841C13.2543 11.7916 13.2534 11.7776 13.3222 11.881C13.3734 11.9578 13.4409 12.0656 13.5207 12.1996C13.6798 12.4664 13.8728 12.8116 14.0589 13.1691C14.2461 13.5286 14.4184 13.8855 14.5411 14.1788C14.6027 14.3261 14.6458 14.4433 14.672 14.5286C14.7049 14.636 14.6889 14.6231 14.6889 14.5415H16.7288ZM14.7455 10.398C14.3647 10.0179 13.8637 9.90599 13.4666 9.87827C13.0508 9.84925 12.5833 9.90058 12.0927 9.99836L12.4914 11.9989C12.8919 11.9191 13.1614 11.9018 13.3246 11.9132C13.5064 11.9259 13.4262 11.9634 13.3043 11.8417L14.7455 10.398ZM12.0901 9.99888C11.8089 10.0557 11.5503 10.1938 11.3466 10.396L12.7838 11.8436C12.7044 11.9224 12.6038 11.9762 12.4941 11.9984L12.0901 9.99888ZM11.344 10.3986C11.2493 10.4933 10.5014 11.2594 9.93638 12.4552C9.36662 13.6611 8.94899 15.3845 9.68055 17.2868L11.5845 16.5547C11.1165 15.3376 11.3612 14.2146 11.7807 13.3267C11.9904 12.883 12.237 12.515 12.4377 12.2522C12.5374 12.1216 12.6241 12.0193 12.6864 11.949C12.7175 11.914 12.7424 11.8871 12.7596 11.8689C12.7682 11.8597 12.7749 11.8528 12.7795 11.8481C12.784 11.8434 12.7864 11.841 12.7864 11.841L11.344 10.3986ZM9.68056 17.2869C10.3914 19.1349 11.6473 21.1107 13.3028 22.7184C14.9582 24.326 17.0666 25.6154 19.4871 25.9785L19.7897 23.9613C17.9013 23.6779 16.1649 22.6544 14.7239 21.255C13.2829 19.8555 12.1905 18.1301 11.5845 16.5545L9.68056 17.2869ZM19.4875 25.9786C20.0202 26.0583 20.53 26.0995 21.017 26.0995V24.0596C20.6444 24.0596 20.2361 24.028 19.7893 23.9611L19.4875 25.9786ZM21.017 26.0995C22.4544 26.0995 23.7213 25.7357 24.6983 24.9011C25.6741 24.0675 26.2377 22.8695 26.4755 21.4413L24.4635 21.1063C24.2799 22.2083 23.8847 22.9132 23.3734 23.3499C22.8633 23.7857 22.1146 24.0596 21.017 24.0596V26.0995ZM26.4749 21.4451C26.5795 20.831 26.2833 20.2209 25.7418 19.9208L24.7533 21.7052C24.5402 21.5871 24.4225 21.3464 24.4641 21.1027L26.4749 21.4451ZM15.6312 16.3598C15.729 16.6765 15.5969 16.9305 15.4826 17.052L13.9975 15.6535C13.7264 15.9414 13.5169 16.4264 13.6822 16.9616L15.6312 16.3598Z" fill="#666666"/>
</svg>