<svg xmlns:xlink="http://www.w3.org/1999/xlink" xmlns="http://www.w3.org/2000/svg" width="25" height="24" viewBox="0 0 25 24" fill="none">
<path d="M19.2422 13.0078L13.6223 16.2877C12.8297 16.7503 11.8241 16.6141 11.1831 15.9575L9.33832 14.068C8.60332 13.3151 7.41069 13.2605 6.60992 13.943L2.16602 17.7305" stroke="#212121" stroke-width="1.25"/>
<path d="M3.66602 8.35547H17.666C18.4254 8.35547 19.041 8.97108 19.041 9.73047V19.7305C19.041 20.4899 18.4254 21.1055 17.666 21.1055H3.66602C2.90662 21.1055 2.29102 20.4899 2.29102 19.7305V9.73047C2.29102 8.97108 2.90662 8.35547 3.66602 8.35547Z" stroke="#212121" stroke-width="1.25"/>
<circle cx="13.666" cy="11.7305" r="1.5" stroke="#212121"/>
<path fill-rule="evenodd" clip-rule="evenodd" d="M7.50303 3.25827L21.3536 5.2985C21.7634 5.35886 22.0466 5.74 21.9863 6.14979L20.529 16.043C20.4686 16.4528 20.0875 16.7361 19.6777 16.6757L19.3738 16.631L19.1816 17.8661L19.4955 17.9124C20.5883 18.0734 21.6047 17.318 21.7656 16.2252L23.2229 6.33195C23.3839 5.23917 22.6285 4.22281 21.5357 4.06184L7.68519 2.02162C6.59242 1.86065 5.57605 2.61603 5.41508 3.7088L4.77344 8.06478C5.01489 8.009 5.27082 7.99747 5.53066 8.03792L6.02945 8.11555L6.65174 3.89097C6.7121 3.48118 7.09324 3.19791 7.50303 3.25827Z" fill="#212121"/>
</svg>