<svg xmlns:xlink="http://www.w3.org/1999/xlink" xmlns="http://www.w3.org/2000/svg" width="58" height="58" viewBox="0 0 58 58" fill="none">
<path d="M56 29C56 43.9117 43.9117 56 29 56C14.0883 56 2 43.9117 2 29C2 14.0883 14.0883 2 29 2C43.9117 2 56 14.0883 56 29Z" fill="#809B9D"/>
<path d="M18.9535 30.8833L24.6037 36.2196C24.6039 36.2198 24.6041 36.2199 24.6044 36.2198L24.605 36.2198C24.6052 36.2198 24.6055 36.2197 24.6057 36.2195L39.0466 21.4647M56 29C56 43.9117 43.9117 56 29 56C14.0883 56 2 43.9117 2 29C2 14.0883 14.0883 2 29 2C43.9117 2 56 14.0883 56 29Z" stroke="white" stroke-width="4" stroke-linecap="round"/>
</svg>