<svg xmlns:xlink="http://www.w3.org/1999/xlink" xmlns="http://www.w3.org/2000/svg" width="25" height="24" viewBox="0 0 25 24" fill="none">
<mask id="path-1-inside-1_14437_324583" fill="white">
<path fill-rule="evenodd" clip-rule="evenodd" d="M11.916 3.25L14.416 3.25L14.416 11H11.916L11.916 3.25ZM10.666 2L11.916 2L14.416 2L15.666 2V3.25L15.666 20.75V22H14.416H11.916H10.666V20.75L10.666 3.25V2Z"/>
</mask>
<path fill-rule="evenodd" clip-rule="evenodd" d="M11.916 3.25L14.416 3.25L14.416 11H11.916L11.916 3.25ZM10.666 2L11.916 2L14.416 2L15.666 2V3.25L15.666 20.75V22H14.416H11.916H10.666V20.75L10.666 3.25V2Z" fill="#212121"/>
<path d="M14.416 3.25H15.666V2L14.416 2V3.25ZM11.916 3.25V2L10.666 2V3.25H11.916ZM14.416 11V12.25H15.666V11H14.416ZM11.916 11H10.666V12.25H11.916V11ZM10.666 2V0.75L9.41602 0.75V2H10.666ZM15.666 2L16.916 2V0.75L15.666 0.75V2ZM15.666 22V23.25H16.916V22H15.666ZM10.666 22H9.41602V23.25H10.666V22ZM14.416 2L11.916 2V4.5H14.416V2ZM15.666 11L15.666 3.25L13.166 3.25L13.166 11H15.666ZM11.916 12.25H14.416V9.75H11.916V12.25ZM10.666 3.25L10.666 11H13.166L13.166 3.25L10.666 3.25ZM11.916 0.75L10.666 0.75V3.25H11.916V0.75ZM14.416 0.75L11.916 0.75V3.25L14.416 3.25V0.75ZM15.666 0.75L14.416 0.75V3.25H15.666V0.75ZM16.916 3.25V2L14.416 2V3.25H16.916ZM16.916 20.75L16.916 3.25H14.416L14.416 20.75H16.916ZM16.916 22V20.75H14.416V22H16.916ZM14.416 23.25H15.666V20.75H14.416V23.25ZM11.916 23.25H14.416V20.75H11.916V23.25ZM10.666 23.25H11.916V20.75H10.666V23.25ZM9.41602 20.75V22H11.916V20.75H9.41602ZM9.41602 3.25L9.41602 20.75H11.916L11.916 3.25H9.41602ZM9.41602 2V3.25H11.916V2L9.41602 2Z" fill="#212121" mask="url(#path-1-inside-1_14437_324583)"/>
<mask id="path-3-inside-2_14437_324583" fill="white">
<path fill-rule="evenodd" clip-rule="evenodd" d="M4.91602 10.25H7.41602L7.41602 16H4.91602L4.91602 10.25ZM8.66602 21V22H7.41602H4.91602H3.66602L3.66602 20.75L3.66602 10.25V9H4.91602H7.41602H8.66602V10.25V16L8.66602 20.75V21Z"/>
</mask>
<path fill-rule="evenodd" clip-rule="evenodd" d="M4.91602 10.25H7.41602L7.41602 16H4.91602L4.91602 10.25ZM8.66602 21V22H7.41602H4.91602H3.66602L3.66602 20.75L3.66602 10.25V9H4.91602H7.41602H8.66602V10.25V16L8.66602 20.75V21Z" fill="#212121"/>
<path d="M7.41602 10.25H8.66602V9H7.41602V10.25ZM4.91602 10.25V9H3.66602V10.25H4.91602ZM7.41602 16V17.25H8.66602V16H7.41602ZM4.91602 16H3.66602V17.25H4.91602L4.91602 16ZM8.66602 22L8.66602 23.25H9.91602L9.91602 22H8.66602ZM3.66602 22H2.41602L2.41602 23.25H3.66602V22ZM3.66602 9V7.75H2.41602V9H3.66602ZM8.66602 9L9.91602 9V7.75H8.66602V9ZM7.41602 9H4.91602V11.5H7.41602V9ZM8.66602 16V10.25H6.16602L6.16602 16H8.66602ZM4.91602 17.25H7.41602L7.41602 14.75H4.91602L4.91602 17.25ZM3.66602 10.25L3.66602 16H6.16602L6.16602 10.25H3.66602ZM9.91602 22V21H7.41602V22H9.91602ZM7.41602 23.25H8.66602L8.66602 20.75H7.41602V23.25ZM4.91602 23.25H7.41602V20.75H4.91602V23.25ZM3.66602 23.25H4.91602V20.75H3.66602L3.66602 23.25ZM2.41602 20.75V22H4.91602V20.75H2.41602ZM2.41602 10.25L2.41602 20.75H4.91602L4.91602 10.25H2.41602ZM2.41602 9V10.25H4.91602V9H2.41602ZM4.91602 7.75H3.66602V10.25H4.91602V7.75ZM7.41602 7.75L4.91602 7.75V10.25H7.41602V7.75ZM8.66602 7.75H7.41602V10.25H8.66602V7.75ZM9.91602 10.25V9L7.41602 9V10.25L9.91602 10.25ZM9.91602 16V10.25L7.41602 10.25L7.41602 16H9.91602ZM7.41602 16V20.75H9.91602L9.91602 16H7.41602ZM7.41602 20.75V21H9.91602V20.75H7.41602Z" fill="#212121" mask="url(#path-3-inside-2_14437_324583)"/>
<mask id="path-5-inside-3_14437_324583" fill="white">
<path fill-rule="evenodd" clip-rule="evenodd" d="M18.916 10.25H21.416V17H18.916V10.25ZM17.666 9H18.916H21.416H22.666V10.25V20.75V22H21.416H18.916H17.666V20.75L17.666 10.25V9Z"/>
</mask>
<path fill-rule="evenodd" clip-rule="evenodd" d="M18.916 10.25H21.416V17H18.916V10.25ZM17.666 9H18.916H21.416H22.666V10.25V20.75V22H21.416H18.916H17.666V20.75L17.666 10.25V9Z" fill="#212121"/>
<path d="M21.416 10.25H22.666V9H21.416V10.25ZM18.916 10.25V9H17.666V10.25H18.916ZM21.416 17V18.25H22.666V17H21.416ZM18.916 17H17.666V18.25H18.916V17ZM17.666 9V7.75H16.416V9H17.666ZM22.666 9L23.916 9V7.75H22.666V9ZM22.666 22L22.666 23.25H23.916L23.916 22H22.666ZM17.666 22H16.416V23.25H17.666V22ZM21.416 9H18.916V11.5H21.416V9ZM22.666 17V10.25H20.166V17H22.666ZM18.916 18.25H21.416V15.75H18.916V18.25ZM17.666 10.25V17H20.166V10.25H17.666ZM18.916 7.75H17.666V10.25H18.916V7.75ZM21.416 7.75L18.916 7.75V10.25H21.416V7.75ZM22.666 7.75H21.416V10.25H22.666V7.75ZM23.916 10.25V9L21.416 9V10.25L23.916 10.25ZM23.916 20.75V10.25L21.416 10.25V20.75H23.916ZM23.916 22V20.75H21.416L21.416 22H23.916ZM21.416 23.25H22.666L22.666 20.75H21.416L21.416 23.25ZM18.916 23.25H21.416L21.416 20.75H18.916V23.25ZM17.666 23.25H18.916V20.75H17.666V23.25ZM16.416 20.75V22H18.916V20.75H16.416ZM16.416 10.25L16.416 20.75H18.916L18.916 10.25H16.416ZM16.416 9V10.25H18.916V9H16.416Z" fill="#212121" mask="url(#path-5-inside-3_14437_324583)"/>
</svg>