<svg xmlns:xlink="http://www.w3.org/1999/xlink" xmlns="http://www.w3.org/2000/svg" width="25" height="24" viewBox="0 0 25 24" fill="none">
<path d="M15.2049 11.3013L11.2847 8.94917C10.9145 8.72699 10.4434 8.99372 10.4434 9.42555V14.1298C10.4434 14.5616 10.9145 14.8283 11.2847 14.6062L15.2049 12.2541C15.5646 12.0383 15.5646 11.5171 15.2049 11.3013Z" stroke="#212121" stroke-width="1.25" stroke-linecap="round" stroke-linejoin="round"/>
<path d="M20.373 4.37308C14.6132 3.87684 10.7389 3.87409 4.9738 4.37413C3.94548 4.46332 3.11588 5.26042 2.99973 6.28604C2.54349 10.3146 2.56349 13.1794 3.00813 17.2698C3.12093 18.3075 3.95971 19.1164 5.00007 19.2013C10.8243 19.6771 14.6913 19.6696 20.3621 19.2032C21.4065 19.1173 22.2463 18.3021 22.353 17.2597C22.7711 13.1782 22.7692 10.3186 22.3543 6.31204C22.2468 5.27449 21.4123 4.46262 20.373 4.37308Z" stroke="#212121" stroke-width="1.25"/>
</svg>