<?xml version="1.0" encoding="UTF-8"?>
<svg width="28px" height="28px" viewBox="0 0 28 28" version="1.1" xmlns="http://www.w3.org/2000/svg" xmlns:xlink="http://www.w3.org/1999/xlink">
    <title>Icons/Profile</title>
    <g id="Icons/Profile" stroke="none" stroke-width="1" fill="none" fill-rule="evenodd">
        <rect id="Bound" x="0" y="0" width="28" height="28"></rect>
        <g id="follow" transform="translate(2.500000, 2.500000)" fill="#888888">
            <path d="M19.1787848,18.2459059 C20.7612978,16.4459569 21.7210003,14.0850386 21.7210003,11.4999569 C21.7210003,5.85509118 17.1448398,1.27899965 11.4999569,1.27899965 C5.85509118,1.27899965 1.27899965,5.85509118 1.27899965,11.4999569 C1.27899965,13.9152126 2.11671035,16.1347673 3.51741723,17.8839151 C4.11656073,15.5395568 5.76660742,13.6156667 7.93611133,12.6438029 C7.04540869,11.7399903 6.49573813,10.4991994 6.49573813,9.12998234 C6.49573813,6.36515579 8.73702783,4.12384885 11.5018544,4.12384885 C14.2666809,4.12384885 16.5080569,6.36515579 16.5080569,9.12998234 C16.5080569,10.5630243 15.9058601,11.8554789 14.9408101,12.7680028 C17.0880874,13.8275827 18.6832791,15.836084 19.1787848,18.2459059 Z M18.0435637,19.3521471 C17.8495877,16.7066904 16.0974211,14.4941219 13.7010541,13.6284317 C13.037275,13.9535938 12.2908684,14.1361848 11.5018544,14.1361848 C10.6503954,14.1361848 9.84861644,13.9235788 9.14662857,13.5485643 C6.72697409,14.3204146 4.91308711,16.4491482 4.59954288,19.0400949 C6.41785448,20.7050629 8.84026895,21.7210003 11.4999569,21.7210003 C13.9893013,21.7210003 16.2706972,20.831074 18.0435637,19.3521471 Z M11.4999569,23 C17.8512264,23 23,17.8512264 23,11.4999569 C23,5.14872181 17.8512264,0 11.4999569,0 C5.14872181,0 0,5.14872181 0,11.4999569 C0,17.8512264 5.14872181,23 11.4999569,23 Z M11.5018544,12.8571852 C13.5602943,12.8571852 15.2290572,11.1884223 15.2290572,9.12998234 C15.2290572,7.07154241 13.5602943,5.4028485 11.5018544,5.4028485 C9.44341445,5.4028485 7.77473778,7.07154241 7.77473778,9.12998234 C7.77473778,11.1884223 9.44341445,12.8571852 11.5018544,12.8571852 Z" id="Shape"></path>
        </g>
    </g>
</svg>