<?xml version="1.0" encoding="UTF-8"?>
<svg width="28px" height="28px" viewBox="0 0 28 28" version="1.1" xmlns="http://www.w3.org/2000/svg" xmlns:xlink="http://www.w3.org/1999/xlink">
    <title>Icons/Home/trending</title>
    <g id="Icons/Home/trending" stroke="none" stroke-width="1" fill="none" fill-rule="evenodd">
        <g id="Trending-icon">
            <rect id="Bound" x="0" y="0" width="28" height="28"></rect>
        </g>
        <path d="M18.6637948,8.47268911 C18.5151766,8.21386189 18.2206453,8.09085233 17.9438204,8.17209971 C17.6668317,8.25333846 17.4753413,8.5186603 17.4753413,8.82118171 C17.4753413,9.64365182 16.8394719,10.3125195 16.0579354,10.3125195 C15.276235,10.3125195 14.6405296,9.64365182 14.6405296,8.82118171 L14.6405296,3.17383362 C14.6405296,2.90131854 14.4843698,2.65565304 14.2450888,2.55124758 C14.0057259,2.44701461 13.7302125,2.50475027 13.5470835,2.69741523 C13.4754385,2.77304774 11.7674362,4.58027571 10.037301,7.31103277 C9.01714752,8.92122293 8.20295275,10.518398 7.61756274,12.0582169 C6.87607857,14.0087576 6.5,15.8764123 6.5,17.6086546 C6.5,21.9599605 9.86450061,25.5 13.9999057,25.5 C18.1354748,25.5 21.5,21.9599605 21.5,17.6086546 C21.5,14.8234739 20.5457451,11.7497011 18.6637948,8.47268911 Z M13.9999057,24.1523459 C10.5708673,24.1523459 7.78083779,21.2168316 7.78083779,17.6086546 C7.78083779,14.0570575 9.57988821,10.4669931 11.0891865,8.08049372 C11.9072012,6.78706483 12.7316099,5.6970045 13.3595278,4.92175619 L13.3595278,8.82118171 C13.3595278,10.3866082 14.5699503,11.6601737 16.0577714,11.6601737 C16.9673507,11.6601737 17.7733973,11.1843332 18.26237,10.4566431 C19.5615699,13.0306842 20.2191622,15.4315354 20.2191622,17.6086546 C20.2191622,21.2168316 17.429354,24.1523459 13.9999057,24.1523459 Z" id="Shape" fill="#888888" fill-rule="nonzero"></path>
        <path d="M17.8119249,13.8719653 L15.068104,13.8719653 C14.7143878,13.8719653 14.427726,14.1735811 14.427726,14.5455768 C14.4275621,14.9178312 14.7143878,15.2196196 15.06794,15.2196196 L16.2659024,15.2196196 L13.529787,18.0982951 L12.0424577,16.5333775 C11.7925201,16.2704017 11.3869147,16.2704017 11.1368951,16.5333775 L9.68161747,18.0643989 C9.43143399,18.3276335 9.43143399,18.7542253 9.68145352,19.01746 C9.93163701,19.2806946 10.3369965,19.2804358 10.58718,19.01746 L11.5897174,17.9627966 L13.0768008,19.5277142 C13.1968922,19.6540703 13.3598557,19.7251401 13.529787,19.7251401 C13.6995544,19.7251401 13.8625179,19.6540703 13.9826093,19.5277142 L17.171547,16.1725943 L17.171547,17.4327049 C17.171547,17.8047005 17.4582087,18.1065751 17.8119249,18.1065751 C18.1656411,18.1065751 18.4523848,17.8047005 18.4523848,17.4327049 L18.4523848,14.5457493 C18.4523848,14.1735811 18.1656411,13.8719653 17.8119249,13.8719653 Z" id="Path" fill="#888888" fill-rule="nonzero"></path>
    </g>
</svg>