<?xml version="1.0" encoding="utf-8"?>
<!-- Generator: Adobe Illustrator 24.2.3, SVG Export Plug-In . SVG Version: 6.00 Build 0)  -->
<svg version="1.1" id="Layer_1" xmlns="http://www.w3.org/2000/svg" xmlns:xlink="http://www.w3.org/1999/xlink" x="0px" y="0px"
	 viewBox="0 0 512 512" style="enable-background:new 0 0 512 512;" xml:space="preserve">
<style type="text/css">
	.st0{fill:#888888;}
</style>
<path class="st0" d="M437.02,74.98C388.67,26.63,324.38,0,256,0C187.62,0,123.33,26.63,74.98,74.98S0,187.62,0,256
	c0,68.38,26.63,132.67,74.98,181.02S187.62,512,256,512c68.38,0,132.67-26.63,181.02-74.98S512,324.38,512,256
	C512,187.62,485.37,123.33,437.02,74.98z M128.34,442.39c10.71-61.65,64.13-107.12,127.66-107.12
	c63.54,0,116.95,45.47,127.66,107.12C347.31,467.36,303.34,482,256,482S164.69,467.36,128.34,442.39z M174.6,223.87
	c0-44.89,36.52-81.4,81.4-81.4s81.4,36.52,81.4,81.4s-36.52,81.4-81.4,81.4S174.6,268.75,174.6,223.87z M409.64,421.58
	c-8.07-28.7-24.11-54.74-46.59-75.08c-13.79-12.48-29.48-22.33-46.36-29.27c30.5-19.89,50.7-54.31,50.7-93.36
	c0-61.43-49.98-111.4-111.4-111.4s-111.4,49.97-111.4,111.4c0,39.05,20.2,73.47,50.7,93.36c-16.87,6.94-32.57,16.79-46.36,29.27
	c-22.47,20.34-38.51,46.38-46.59,75.08C57.88,380.27,30,321.34,30,256C30,131.38,131.38,30,256,30s226,101.38,226,226
	C482,321.34,454.12,380.28,409.64,421.58z"/>
</svg>
